<svg
xmlns="http://www.w3.org/2000/svg"
width="310.000000pt"
height="318.000000pt"
viewBox="0 0 310.000000 318.000000"
preserveAspectRatio="xMidYMid meet"
>
<g transform="translate(0.000000,318.000000) scale(0.100000,-0.100000)">
    <path
    d="M303 3116 c-101 -33 -191 -110 -240 -206 -26 -51 -28 -64 -28 -170 0 -106 2 -119 28 -170 38 -73 108 -144 182 -183 56 -30 66 -32 165 -32 98 0 109 2 165 31 76 40 147 116 185 197 27 55 30 72 30 158 0 90 -2 101 -35 166 -42 84 -112 154 -193 191 -69 31 -192 40 -259 18z m207 -32 c268 -79 348 -416 144 -605 -52 -48 -81 -64 -144 -83 -189 -56 -387 53 -444 244 -80 269 175 524 444 444z"
    fill="#ffffff" 
    />

</g>
</svg>
